<svg width="93" height="93" viewBox="0 0 93 93" fill="none" xmlns="http://www.w3.org/2000/svg">
<path d="M88.5565 46.2164C88.5565 69.6002 69.6002 88.5565 46.2164 88.5565C22.8327 88.5565 3.87636 69.6002 3.87636 46.2164C3.87636 22.8327 22.8327 3.87636 46.2164 3.87636C69.6002 3.87636 88.5565 22.8327 88.5565 46.2164Z" fill="#015498" stroke="white" stroke-width="5.75273"/>
<path d="M91.4329 46.2164C91.4329 71.1888 71.1888 91.4329 46.2164 91.4329C21.2441 91.4329 1 71.1888 1 46.2164C1 21.2441 21.2441 1 46.2164 1C71.1888 1 91.4329 21.2441 91.4329 46.2164Z" fill="#015498"/>
<path d="M46.2164 91.8931C71.443 91.8931 91.8931 71.443 91.8931 46.2164C91.8931 20.9899 71.443 0.539782 46.2164 0.539782C20.9899 0.539782 0.539782 20.9899 0.539782 46.2164C0.539782 71.443 20.9899 91.8931 46.2164 91.8931Z" stroke="#015498" stroke-opacity="0.15" stroke-width="0.920436"/>
<path d="M88.6716 46.2164C88.6716 69.6637 69.6637 88.6716 46.2164 88.6716C22.7691 88.6716 3.76131 69.6637 3.76131 46.2164C3.76131 22.7691 22.7691 3.76131 46.2164 3.76131C69.6637 3.76131 88.6716 22.7691 88.6716 46.2164Z" stroke="white" stroke-width="5.52262"/>
<path d="M55.3987 21.4561C56.4401 20.4158 59.7619 18.9671 60.1087 18.2725C60.2729 17.943 59.4033 17.3791 59.0662 17.2311C58.0313 16.7785 55.5953 17.2311 54.5539 17.0583C50.7363 15.1494 47.96 14.8027 45.5305 15.843C41.7128 17.579 41.0193 22.0902 41.0193 23.8262C41.0193 25.3904 40.9307 28.5307 40.6714 30.0723C40.5666 30.6956 40.2242 31.9217 39.9779 32.5029C39.2833 34.9324 37.5473 37.3619 36.1591 39.0969C35.1599 40.3467 26.7889 49.8563 25.3996 52.6326C24.1541 55.0481 20.8884 60.6158 22.2777 62.6975C23.6928 62.9006 24.0126 58.1863 30.9673 52.6326C32.6504 51.1127 35.4397 48.277 35.9539 47.3825C36.1969 46.9591 35.9636 49.0548 35.9539 49.5431C35.7929 58.0372 37.0341 62.5063 37.0266 67.5566C37.5473 70.3328 37.57 71.3289 37.0266 72.4156C35.4645 75.5387 32.6882 75.5387 31.9936 76.755C31.9936 76.755 35.2344 79.0128 42.6159 74.5405M54.5138 49.5431C55.7064 50.7476 60.342 53.9203 61.1836 54.7154C63.2814 56.6988 68.296 63.7389 69.4184 62.6986C69.7955 62.3507 70.3766 60.5931 70.1692 59.9201C69.2899 57.0671 65.5111 51.278 62.4313 45.9522C59.3179 40.566 56.2813 35.9054 56.2813 35.9054L52.7463 32.5029M45.9004 74.5405C51.655 79.365 59.5102 75.8584 59.5102 75.8584C59.5102 75.2373 54.241 72.6136 49.8421 70.3472" fill="white"/>
<path d="M42.4265 25.8314C42.4798 26.8362 42.3768 27.9313 42.1787 29.0663C41.7911 31.2873 41.0156 33.7826 40.1667 36.2818C39.8734 37.1456 39.5719 38.0081 39.2734 38.8622C38.7017 40.4979 38.1408 42.1026 37.6685 43.6255C36.9482 45.9484 36.4638 47.9926 36.4638 49.559C36.4638 50.9722 36.4226 52.072 36.387 53.0212C36.3804 53.1977 36.3739 53.3691 36.368 53.5363C36.3302 54.6029 36.3128 55.4968 36.3882 56.5223C36.5393 58.5767 37.0662 61.1997 38.6078 66.74C40.1295 72.2086 42.31 73.8146 44.0595 74.0209C44.9651 74.1277 45.8551 73.8797 46.6304 73.4579C47.4083 73.0347 48.0326 72.4566 48.3937 71.9667C49.5639 70.3787 50.6758 67.9496 51.6426 65.0822C52.6062 62.2247 53.4127 58.9714 53.9878 55.7635C54.5631 52.5546 54.9043 49.4056 54.943 46.7564C54.9821 44.0741 54.7078 42.0089 54.1335 40.8897C54.1335 40.8897 54.1335 40.8896 54.1335 40.8896L54.6577 40.6207C52.8545 37.1075 53.0208 28.7151 53.1447 25.7197L42.4265 25.8314ZM42.4265 25.8314C43.2559 26.479 44.3445 27.1241 45.5496 27.5539C46.8546 28.0192 48.3345 28.245 49.7806 27.9047C50.7582 27.6747 51.6942 27.1917 52.5304 26.3901L42.4265 25.8314Z" fill="#015498" stroke="white" stroke-width="1.17833"/>
<path d="M43.5939 28.0033C43.5461 28.4432 43.4815 28.883 43.4055 29.3181C43.0018 31.6293 42.2016 34.1911 41.353 36.6878C41.0525 37.5718 40.7478 38.4426 40.4484 39.2986C39.8828 40.9152 39.3357 42.4789 38.8703 43.9783C38.1541 46.286 37.7214 48.1752 37.7214 49.5432C37.7214 50.9757 37.6794 52.0952 37.6439 53.042C37.6373 53.2168 37.6309 53.3858 37.6251 53.5498C37.5877 54.6038 37.5725 55.4423 37.6428 56.3979C37.7843 58.3192 38.2807 60.8361 39.8172 66.3533C41.2937 71.6549 43.2428 72.6363 44.2578 72.7559C44.8582 72.8267 45.501 72.6672 46.1216 72.3298C46.75 71.9882 47.2398 71.5252 47.4949 71.1794C48.5545 69.7425 49.6282 67.4289 50.5956 64.5692C51.5526 61.7406 52.366 58.4977 52.9532 55.2909C53.5409 52.0812 53.894 48.9509 53.9472 46.3464C53.9739 45.0438 53.9247 43.9025 53.8021 42.9647C53.6764 42.0041 53.4866 41.3644 53.2973 40.9957C53.2972 40.9956 53.2972 40.9955 53.2972 40.9955L54.8695 40.188C53.3612 37.2518 53.1521 31.104 53.1712 27.4986L43.5939 28.0033ZM43.5939 28.0033C44.1008 28.2725 44.6434 28.5169 45.2108 28.7191C46.652 29.2326 48.368 29.5126 50.0976 29.1059C50.5452 29.0007 50.9825 28.852 51.4059 28.6576L43.5939 28.0033Z" stroke="white" stroke-width="3.535" stroke-miterlimit="10" stroke-linecap="round" stroke-linejoin="round"/>
<path d="M55.3987 21.4561C56.4401 20.4158 59.7619 18.9671 60.1087 18.2725C60.2729 17.943 59.4033 17.3791 59.0662 17.2311C58.0313 16.7785 55.5953 17.2311 54.5539 17.0583C50.7363 15.1494 47.96 14.8027 45.5305 15.843C41.7128 17.579 41.0193 22.0902 41.0193 23.8262C41.0193 25.3904 40.9307 28.5307 40.6714 30.0723C40.5666 30.6956 40.2242 31.9217 39.9779 32.5029C39.2833 34.9324 37.5473 37.3619 36.1591 39.0969C35.1599 40.3467 26.7889 49.8563 25.3996 52.6326C24.1541 55.0481 20.8884 60.6158 22.2777 62.6975C23.6928 62.9006 24.0126 58.1863 30.9673 52.6326C32.6504 51.1127 35.4397 48.277 35.9539 47.3825C36.1969 46.9591 35.9636 49.0548 35.9539 49.5431C35.7929 58.0372 37.0341 62.5063 37.0266 67.5565C37.5473 70.3328 37.57 71.3289 37.0266 72.4156C35.4645 75.5387 32.6882 75.5387 31.9936 76.755C31.9936 76.755 35.2344 79.0128 42.6159 74.5405M58.6017 51.6172C59.7068 52.8217 61.0626 53.9203 61.8414 54.7154C63.7859 56.6988 68.4354 63.7389 69.4768 62.6986C69.8257 62.3507 70.3648 60.5931 70.1725 59.9201C68.0897 52.6326 60.4403 43.6858 56.3872 36.6403M49.8537 75.7569C54.9936 77.737 59.0446 76.2722 59.0446 76.2722C58.7616 75.8714 55.8589 74.3169 54.2083 73.6795" stroke="white" stroke-width="0.993848" stroke-miterlimit="10" stroke-linecap="round" stroke-linejoin="round"/>
</svg>
