<svg width="654" height="654" viewBox="0 0 654 654" fill="none" xmlns="http://www.w3.org/2000/svg">
<path d="M626.644 327C626.644 492.489 492.489 626.644 327 626.644C161.511 626.644 27.3562 492.489 27.3562 327C27.3562 161.511 161.511 27.3562 327 27.3562C492.489 27.3562 626.644 161.511 626.644 327Z" fill="#015498" stroke="white" stroke-width="40.7125"/>
<path d="M647 327C647 503.731 503.731 647 327 647C150.269 647 7 503.731 7 327C7 150.269 150.269 7 327 7C503.731 7 647 150.269 647 327Z" fill="#015498"/>
<path d="M327 650.257C505.53 650.257 650.257 505.53 650.257 327C650.257 148.47 505.53 3.743 327 3.743C148.47 3.743 3.743 148.47 3.743 327C3.743 505.53 148.47 650.257 327 650.257Z" stroke="#015498" stroke-opacity="0.15" stroke-width="6.514"/>
<path d="M627.458 327C627.458 492.938 492.938 627.458 327 627.458C161.062 627.458 26.542 492.938 26.542 327C26.542 161.062 161.062 26.542 327 26.542C492.938 26.542 627.458 161.062 627.458 327Z" stroke="white" stroke-width="39.084"/>
<path d="M391.984 151.769C399.353 144.407 422.862 134.155 425.316 129.239C426.478 126.907 420.324 122.916 417.939 121.869C410.615 118.666 393.375 121.869 386.005 120.646C358.987 107.137 339.339 104.683 322.145 112.045C295.127 124.331 290.219 156.257 290.219 168.543C290.219 179.613 289.592 201.837 287.757 212.747C287.016 217.158 284.592 225.835 282.849 229.949C277.933 247.142 265.648 264.336 255.824 276.614C248.752 285.46 189.51 352.76 179.678 372.408C170.863 389.503 147.752 428.906 157.583 443.638C167.599 445.075 169.862 411.712 219.081 372.408C230.992 361.651 250.732 341.583 254.371 335.253C256.091 332.256 254.44 347.087 254.371 350.543C253.232 410.657 262.016 442.285 261.963 478.026C265.648 497.674 265.808 504.723 261.963 512.414C250.908 534.516 231.26 534.516 226.344 543.124C226.344 543.124 249.279 559.103 301.519 527.452M385.721 350.543C394.161 359.067 426.968 381.521 432.923 387.148C447.77 401.184 483.259 451.008 491.202 443.646C493.87 441.184 497.983 428.745 496.516 423.982C490.292 403.791 463.55 362.821 441.753 325.131C419.72 287.012 398.23 254.028 398.23 254.028L373.212 229.949M324.763 527.452C365.489 561.595 421.081 536.779 421.081 536.779C421.081 532.383 383.79 513.815 352.659 497.775" fill="white"/>
<path d="M298.425 205.627C299.826 197.595 300.555 189.845 300.179 182.734C306.048 187.317 313.752 191.883 322.281 194.924C331.517 198.217 341.99 199.815 352.224 197.407C359.142 195.779 365.767 192.361 371.685 186.688C371.676 186.96 371.667 187.237 371.658 187.516C371.4 195.791 371.22 207.153 371.533 219.487C371.846 231.809 372.654 245.17 374.387 257.424C376.107 269.589 378.787 281.036 383.03 289.302C387.094 297.223 389.036 311.838 388.759 330.821C388.485 349.57 386.07 371.856 381.999 394.565C377.929 417.268 372.221 440.292 365.402 460.515C358.559 480.807 350.69 497.998 342.409 509.237C339.853 512.704 335.435 516.795 329.93 519.79C324.443 522.775 318.144 524.53 311.735 523.774C299.354 522.314 283.923 510.949 273.153 472.247C262.243 433.038 258.515 414.475 257.445 399.936C256.911 392.678 257.034 386.352 257.302 378.803C257.344 377.62 257.39 376.407 257.436 375.158C257.688 368.441 257.98 360.657 257.98 350.656C257.98 339.57 261.408 325.103 266.506 308.664C269.848 297.886 273.818 286.53 277.864 274.954C279.976 268.91 282.11 262.805 284.186 256.692C290.193 239.005 295.682 221.346 298.425 205.627Z" fill="#015498" stroke="white" stroke-width="8.33916"/>
<path d="M308.44 198.104C308.101 201.217 307.644 204.329 307.106 207.409C304.249 223.765 298.586 241.896 292.581 259.564C290.454 265.821 288.298 271.984 286.178 278.042C282.176 289.482 278.304 300.549 275.01 311.16C269.941 327.492 266.88 340.862 266.88 350.543C266.88 360.681 266.582 368.604 266.331 375.304C266.284 376.542 266.239 377.738 266.198 378.898C265.933 386.358 265.825 392.292 266.323 399.054C267.325 412.652 270.838 430.464 281.712 469.509C292.161 507.029 305.955 513.975 313.138 514.822C317.387 515.322 321.936 514.194 326.328 511.806C330.776 509.388 334.242 506.111 336.047 503.665C343.546 493.495 351.145 477.121 357.991 456.883C364.764 436.865 370.52 413.915 374.676 391.22C378.835 368.505 381.334 346.351 381.711 327.919C381.899 318.701 381.552 310.624 380.683 303.987C379.794 297.189 378.451 292.662 377.111 290.052L308.44 198.104ZM308.44 198.104C312.027 200.009 315.867 201.739 319.882 203.17C330.082 206.804 342.226 208.785 354.467 205.907C357.635 205.162 360.729 204.11 363.725 202.735C363.77 207.679 363.884 213.034 364.104 218.601C364.58 230.67 365.563 243.938 367.477 256.283C369.355 268.39 372.274 280.635 377.11 290.05L308.44 198.104Z" stroke="white" stroke-width="25.0175" stroke-miterlimit="10" stroke-linecap="round" stroke-linejoin="round"/>
<path d="M391.984 151.769C399.354 144.407 422.862 134.155 425.316 129.239C426.478 126.907 420.324 122.916 417.939 121.869C410.615 118.666 393.375 121.869 386.005 120.646C358.987 107.137 339.339 104.683 322.145 112.045C295.127 124.331 290.219 156.257 290.219 168.543C290.219 179.613 289.592 201.837 287.757 212.747C287.016 217.158 284.592 225.835 282.849 229.949C277.933 247.142 265.648 264.336 255.824 276.614C248.752 285.46 189.51 352.76 179.678 372.408C170.863 389.503 147.752 428.906 157.583 443.638C167.599 445.075 169.862 411.712 219.081 372.408C230.992 361.651 250.732 341.583 254.371 335.253C256.091 332.256 254.44 347.087 254.371 350.543C253.232 410.657 262.016 442.285 261.963 478.026C265.648 497.674 265.808 504.723 261.963 512.414C250.908 534.516 231.26 534.516 226.344 543.124C226.344 543.124 249.279 559.103 301.519 527.452M414.651 365.222C422.472 373.746 432.067 381.521 437.579 387.148C451.34 401.184 484.245 451.008 491.615 443.646C494.085 441.184 497.899 428.745 496.539 423.982C481.799 372.408 427.663 309.091 398.979 259.229M352.741 536.06C389.117 550.074 417.786 539.707 417.786 539.707C415.783 536.871 395.24 525.869 383.559 521.359" stroke="white" stroke-width="7.03353" stroke-miterlimit="10" stroke-linecap="round" stroke-linejoin="round"/>
</svg>
