<svg width="196" height="196" viewBox="0 0 196 196" fill="none" xmlns="http://www.w3.org/2000/svg">
<circle cx="97.8696" cy="97.8696" r="97.8696" fill="url(#paint0_linear_3_25)"/>
<circle cx="97.8696" cy="97.8696" r="94.8111" stroke="#47256A" stroke-opacity="0.15" stroke-width="6.11685"/>
<g clip-path="url(#clip0_3_25)">
<path d="M134.943 25.1297L131.162 126.797H142.311L138.529 25.1297H134.943ZM122.419 32.988L128.067 38.6362L122.419 44.2844H129.811L130.228 32.988H122.419ZM143.244 32.988L143.661 44.2844H151.053L145.405 38.6362L151.053 32.988H143.244ZM129.344 56.3174C124.678 62.9479 118.465 66.8034 111.098 69.1118C101.349 72.1814 89.537 72.3533 77.2584 71.9113C83.2994 72.3533 88.4565 73.9741 92.7294 76.4053C99.63 76.1106 106.285 75.2757 112.424 73.3356C118.687 71.371 124.359 68.1786 129.099 63.3899L129.344 56.3174ZM67.2881 76.7245C59.6999 77.9524 54.231 81.3168 50.2208 85.7862H61.2224C62.7941 82.4464 64.8078 79.3767 67.2881 76.7245ZM80.4508 76.7245C82.9311 79.3767 84.9448 82.4464 86.5164 85.7862H97.5181C93.5153 81.3168 88.039 77.9524 80.4508 76.7245ZM73.8694 76.7491C70.7261 79.1312 68.1967 82.2254 66.2321 85.7862H81.5068C79.5422 82.2254 77.0128 79.1312 73.8694 76.7491ZM46.9055 90.2065C45.1374 93.0306 43.8015 96.1248 42.8339 99.2927H57.0821C57.6297 96.1494 58.3934 93.1043 59.4052 90.2065H46.9055ZM64.1693 90.2065C63.0642 93.0551 62.2047 96.1002 61.5908 99.2927H86.1481C85.5342 96.1002 84.6747 93.0551 83.5696 90.2065H64.1693ZM88.3337 90.2065C89.3405 93.1043 90.1018 96.1494 90.6666 99.2927H104.91C103.952 96.1248 102.601 93.0306 100.833 90.2065H88.3337ZM41.7141 103.713C41.2033 106.242 40.9013 108.723 40.7883 111.08H55.9721C56.0286 108.624 56.1833 106.144 56.4559 103.713H41.7141ZM60.9032 103.713C60.6331 106.12 60.4612 108.6 60.3875 111.08H87.3514C87.2777 108.6 87.1058 106.12 86.8357 103.713H60.9032ZM91.2806 103.713C91.5507 106.144 91.698 108.624 91.7717 111.08H106.948C106.825 108.723 106.531 106.242 106.015 103.713H91.2806ZM40.7171 115.5V126.797H66.0111V131.217H40.7171V138.584H83.4468V118.939H99.6546V138.584H107.022V115.5H40.7171ZM87.8671 123.359V138.584H95.2343V123.359H87.8671ZM127.159 131.217V138.584H146.313V131.217H127.159Z" fill="#482B59"/>
</g>
<defs>
<linearGradient id="paint0_linear_3_25" x1="97.8696" y1="0" x2="97.8696" y2="195.739" gradientUnits="userSpaceOnUse">
<stop stop-color="white"/>
<stop offset="1" stop-color="#E4E4E4"/>
</linearGradient>
<clipPath id="clip0_3_25">
<rect width="160" height="160" fill="white" transform="translate(8 17.7391)"/>
</clipPath>
</defs>
</svg>
