<svg width="195" height="195" viewBox="0 0 195 195" fill="none" xmlns="http://www.w3.org/2000/svg">
<ellipse cx="98.5" cy="97" rx="88.5" ry="90" fill="white"/>
<circle cx="97.5" cy="97.5" r="89.5" fill="#F3F3F3" stroke="white" stroke-width="12"/>
<circle cx="97.5" cy="97.5" r="89.5" fill="#F3F3F3" stroke="white" stroke-width="12"/>
<path d="M132.986 38L129.615 128.618H139.552L136.182 38H132.986ZM121.823 45.0043L126.857 50.0386L121.823 55.0729H128.411L128.783 45.0043H121.823ZM140.384 45.0043L140.756 55.0729H147.345L142.31 50.0386L147.345 45.0043H140.384ZM127.995 65.7983C123.837 71.7081 118.299 75.1446 111.732 77.2021C103.043 79.9382 92.5142 80.0914 81.57 79.6974C86.9545 80.0914 91.5511 81.536 95.3597 83.703C101.51 83.4403 107.442 82.6961 112.914 80.9669C118.496 79.2159 123.552 76.3704 127.776 72.1021L127.995 65.7983ZM72.6833 83.9875C65.9197 85.082 61.0452 88.0807 57.4708 92.0644H67.2768C68.6777 89.0875 70.4725 86.3515 72.6833 83.9875ZM84.4155 83.9875C86.6262 86.3515 88.421 89.0875 89.8219 92.0644H99.6279C96.0601 88.0807 91.179 85.082 84.4155 83.9875ZM78.5494 84.0094C75.7477 86.1326 73.4931 88.8905 71.7421 92.0644H85.3567C83.6056 88.8905 81.3511 86.1326 78.5494 84.0094ZM54.5159 96.0043C52.9399 98.5215 51.7492 101.279 50.8868 104.103H63.5864C64.0746 101.301 64.7553 98.5871 65.6571 96.0043H54.5159ZM69.9034 96.0043C68.9185 98.5433 68.1524 101.258 67.6052 104.103H89.4936C88.9464 101.258 88.1803 98.5433 87.1953 96.0043H69.9034ZM91.4416 96.0043C92.3391 98.5871 93.0176 101.301 93.521 104.103H106.216C105.363 101.279 104.159 98.5215 102.583 96.0043H91.4416ZM49.8887 108.043C49.4334 110.297 49.1642 112.508 49.0635 114.609H62.5971C62.6474 112.421 62.7853 110.21 63.0283 108.043H49.8887ZM66.9923 108.043C66.7515 110.188 66.5983 112.399 66.5326 114.609H90.5661C90.5004 112.399 90.3472 110.188 90.1065 108.043H66.9923ZM94.0683 108.043C94.309 110.21 94.4404 112.421 94.506 114.609H108.033C107.924 112.508 107.661 110.297 107.201 108.043H94.0683ZM49 118.549V128.618H71.5451V132.558H49V139.124H87.0859V121.614H101.532V139.124H108.099V118.549H49ZM91.0258 125.554V139.124H97.5923V125.554H91.0258ZM126.047 132.558V139.124H143.12V132.558H126.047Z" fill="#054C86"/>
<circle cx="97.5" cy="97.5" r="96.5" stroke="#BFD4E5" stroke-width="2"/>
</svg>
