<svg width="150" height="182" viewBox="0 0 150 182" fill="none" xmlns="http://www.w3.org/2000/svg">
<ellipse cx="75.3953" cy="84.4901" rx="63.2411" ry="73.5178" fill="white"/>
<path d="M117.974 116.248L117.25 115.558L117.974 116.248C126.065 107.749 131.455 97.0409 133.46 85.4788C135.466 73.9167 133.998 62.0195 129.243 51.2916C124.487 40.5637 116.657 31.4869 106.742 25.2089C96.8282 18.931 85.275 15.734 73.5438 16.022C61.8125 16.31 50.4301 20.0702 40.8359 26.8271C31.2417 33.584 23.8665 43.0342 19.643 53.9826C15.4195 64.9309 14.5373 76.8858 17.1081 88.3356C19.6788 99.7853 25.587 110.216 34.0855 118.308L34.775 117.583L34.0855 118.308L76.3355 158.533L77.0598 159.222L77.7493 158.498L117.974 116.248ZM23.9729 128.926C13.3732 118.834 6.00412 105.825 2.7977 91.5445C-0.408716 77.2642 0.691492 62.3537 5.9592 48.6987C11.2269 35.0436 20.4255 23.2573 32.3918 14.8302C44.3581 6.40305 58.5546 1.71358 73.186 1.35481C87.8175 0.996038 102.227 4.98407 114.592 12.8146C126.957 20.6451 136.722 31.9664 142.652 45.3469C148.583 58.7273 150.413 73.5659 147.91 87.9862C145.407 102.407 138.685 115.761 128.592 126.36L77.5654 179.953L23.9729 128.926Z" fill="white" stroke="#BFD4E5" stroke-width="2"/>
<path d="M21.4577 114.28L74.5904 162.954L129.009 110.274L141.8 75.2526L127.742 33.324L106.406 18.9577L69.9172 7.94025L29.6281 31.7312L7.82894 68.0448L21.4577 114.28Z" fill="white" stroke="white" stroke-width="7.18876"/>
<circle cx="75" cy="77" r="61" fill="#F0F8FF"/>
<path d="M87.7993 42.6571C89.2559 41.202 93.9022 39.1758 94.3873 38.2042C94.6169 37.7434 93.4006 36.9546 92.9291 36.7476C91.4816 36.1145 88.0743 36.7476 86.6177 36.5059C81.2779 33.836 77.3947 33.3509 73.9964 34.806C68.6566 37.2342 67.6865 43.5441 67.6865 45.9722C67.6865 48.1601 67.5626 52.5526 67.2 54.7088C67.0534 55.5806 66.5745 57.2956 66.23 58.1085C65.2584 61.5067 62.8302 64.9049 60.8886 67.3316C59.4909 69.0798 47.7823 82.3811 45.8391 86.2643C44.097 89.6429 39.5292 97.4305 41.4724 100.342C43.4518 100.626 43.899 94.0323 53.6268 86.2643C55.9809 84.1383 59.8823 80.172 60.6015 78.9209C60.9415 78.3286 60.6151 81.2599 60.6015 81.9429C60.3764 93.8238 62.1125 100.075 62.1019 107.139C62.8302 111.022 62.862 112.415 62.1019 113.935C59.917 118.303 56.0338 118.303 55.0622 120.005C55.0622 120.005 59.5952 123.163 69.9198 116.907M86.5616 81.9429C88.2297 83.6276 94.7136 88.0654 95.8907 89.1775C98.825 91.9517 105.839 101.799 107.409 100.344C107.936 99.8572 108.749 97.3988 108.459 96.4574C107.229 92.4669 101.944 84.3695 97.6359 76.9203C93.2812 69.3865 89.0338 62.8676 89.0338 62.8676L84.0894 58.1085M74.5139 116.907C82.5629 123.655 93.5502 118.751 93.5502 118.751C93.5502 117.882 86.18 114.212 80.0272 111.042" fill="#482B59"/>
<path d="M69.7466 48.8638C69.8204 50.2639 69.6766 51.7894 69.4005 53.3701C68.8596 56.4672 67.7773 59.9466 66.5928 63.4314C66.1834 64.6358 65.7627 65.8385 65.3461 67.0293C64.5483 69.31 63.7656 71.5473 63.1066 73.6707C62.1014 76.9094 61.4256 79.7593 61.4256 81.9429C61.4256 83.9133 61.368 85.4469 61.3184 86.7703C61.3091 87.0165 61.3002 87.2554 61.2919 87.4885C61.2391 88.9757 61.2148 90.222 61.32 91.6517C61.5309 94.5158 62.266 98.1728 64.4173 105.898C66.5407 113.522 69.583 115.76 72.0234 116.048C73.2869 116.197 74.5286 115.851 75.6102 115.263C76.6956 114.673 77.5665 113.867 78.0703 113.184C79.7029 110.971 81.2545 107.584 82.6037 103.586C83.9482 99.6019 85.0736 95.0659 85.8762 90.5933C86.679 86.1192 87.1551 81.7287 87.2091 78.0351C87.2637 74.2952 86.8808 71.4164 86.0798 69.8566L69.7466 48.8638ZM69.7466 48.8638C70.9037 49.766 72.4219 50.6646 74.1023 51.2634C75.9236 51.9122 77.9889 52.2271 80.0072 51.7526C81.3705 51.432 82.6758 50.7594 83.8422 49.6433C83.8405 49.6953 83.8389 49.748 83.8372 49.8013C83.7863 51.4317 83.7507 53.6702 83.8125 56.1003C83.8743 58.528 84.0335 61.1606 84.3752 63.575C84.7145 65.9717 85.243 68.2274 86.0798 69.8565L69.7466 48.8638Z" fill="white" stroke="#482B59" stroke-width="1.64816"/>
<path d="M71.2877 51.8146C71.2208 52.43 71.1305 53.0451 71.0242 53.6537C70.4595 56.8864 69.3403 60.4697 68.1533 63.9618C67.733 65.1983 67.3069 66.4163 66.888 67.6136C66.0969 69.8748 65.3317 72.062 64.6807 74.1592C63.6789 77.387 63.0738 80.0295 63.0738 81.9429C63.0738 83.9466 63.015 85.5124 62.9653 86.8367C62.9561 87.0813 62.9472 87.3176 62.9391 87.547C62.8867 89.0213 62.8654 90.1941 62.9638 91.5306C63.1617 94.218 63.856 97.7384 66.0051 105.455C68.0703 112.871 70.7967 114.244 72.2163 114.411C73.056 114.51 73.9551 114.287 74.8232 113.815C75.7022 113.337 76.3873 112.689 76.7441 112.206C78.2262 110.196 79.728 106.96 81.0811 102.96C82.4196 99.0036 83.5574 94.4677 84.3786 89.9824C85.2007 85.4928 85.6946 81.1144 85.7691 77.4715C85.8063 75.6495 85.7376 74.0531 85.566 72.7415C85.3902 71.3979 85.1248 70.5032 84.8599 69.9873L71.2877 51.8146ZM71.2877 51.8146C71.9967 52.1913 72.7556 52.5332 73.5492 52.8159C75.5651 53.5341 77.9652 53.9258 80.3845 53.357C81.0106 53.2098 81.6222 53.0018 82.2144 52.7299C82.2233 53.7072 82.2457 54.7654 82.2892 55.8657C82.3833 58.2512 82.5775 60.8734 82.9559 63.3133C83.327 65.7062 83.904 68.1263 84.8598 69.9871L71.2877 51.8146Z" stroke="#482B59" stroke-width="4.94447" stroke-miterlimit="10" stroke-linecap="round" stroke-linejoin="round"/>
<path d="M87.7993 42.6571C89.2559 41.202 93.9022 39.1758 94.3873 38.2042C94.6169 37.7434 93.4006 36.9546 92.9292 36.7476C91.4816 36.1145 88.0743 36.7476 86.6177 36.5059C81.2779 33.836 77.3947 33.3509 73.9964 34.806C68.6566 37.2342 67.6865 43.5441 67.6865 45.9722C67.6865 48.1601 67.5626 52.5526 67.2 54.7088C67.0534 55.5806 66.5745 57.2956 66.23 58.1085C65.2584 61.5067 62.8302 64.9049 60.8886 67.3316C59.4909 69.0798 47.7823 82.3811 45.8391 86.2643C44.097 89.6429 39.5292 97.4305 41.4724 100.342C43.4518 100.626 43.899 94.0323 53.6268 86.2643C55.9809 84.1383 59.8823 80.172 60.6015 78.9209C60.9415 78.3286 60.6151 81.2599 60.6015 81.9429C60.3764 93.8238 62.1125 100.075 62.1019 107.139C62.8302 111.022 62.862 112.415 62.1019 113.935C59.917 118.303 56.0338 118.303 55.0622 120.005C55.0622 120.005 59.5952 123.163 69.9198 116.907M92.2794 84.844C93.8252 86.5287 95.7215 88.0654 96.8109 89.1775C99.5307 91.9517 106.034 101.799 107.491 100.344C107.979 99.8572 108.733 97.3988 108.464 96.4574C105.55 86.2643 94.8511 73.7503 89.1819 63.8956M80.0434 118.609C87.2327 121.378 92.8989 119.329 92.8989 119.329C92.5031 118.769 88.443 116.594 86.1342 115.703" stroke="#482B59" stroke-width="1.39011" stroke-miterlimit="10" stroke-linecap="round" stroke-linejoin="round"/>
</svg>
