<svg width="162" height="232" viewBox="0 0 162 232" fill="none" xmlns="http://www.w3.org/2000/svg">
<path d="M8 101.429L9.3324 103.723C28.6647 136.298 52.3423 145.821 87.2498 146.689C115.821 147.4 141.511 114.835 150.786 98.4638L80.692 226.566L9.3324 103.723C8.88598 102.971 8.44187 102.206 8 101.429Z" fill="#F4F4F4"/>
<path d="M8 101.429L80.692 226.566L150.786 98.4638C141.511 114.835 115.821 147.4 87.2498 146.689C51.5362 145.801 27.5772 135.853 8 101.429Z" stroke="#CFCAD4" stroke-width="4"/>
<circle cx="81" cy="80" r="80" fill="url(#paint0_linear_1_13)"/>
<circle cx="81" cy="80" r="77.5" stroke="#47256A" stroke-opacity="0.15" stroke-width="5"/>
<path d="M98.5652 26.3044C100.661 24.2109 107.346 21.2957 108.043 19.8978C108.374 19.2348 106.624 18.1 105.946 17.8022C103.863 16.8913 98.9609 17.8022 96.8652 17.4544C89.1826 13.613 83.5957 12.9152 78.7065 15.0087C71.0239 18.5022 69.6283 27.5804 69.6283 31.0739C69.6283 34.2217 69.45 40.5413 68.9283 43.6435C68.7174 44.8978 68.0283 47.3652 67.5326 48.5348C66.1348 53.4239 62.6413 58.3131 59.8478 61.8044C57.837 64.3196 40.9913 83.4565 38.1957 89.0435C35.6891 93.9044 29.1174 105.109 31.9131 109.298C34.7609 109.707 35.4044 100.22 49.4 89.0435C52.787 85.9848 58.4 80.2783 59.4348 78.4783C59.9239 77.6261 59.4544 81.8435 59.4348 82.8261C59.1109 99.9196 61.6087 108.913 61.5935 119.076C62.6413 124.663 62.687 126.667 61.5935 128.854C58.45 135.139 52.8631 135.139 51.4652 137.587C51.4652 137.587 57.987 142.13 72.8413 133.13M99.3892 84.6631C101.789 87.087 108.513 91.6348 110.207 93.2348C114.428 97.2261 124.52 111.393 126.778 109.3C127.537 108.6 128.707 105.063 128.289 103.709C126.52 97.9674 118.915 86.3174 112.717 75.6C106.452 64.7609 101.972 55.1891 101.972 55.1891L94.9 47.4478M80.6392 133.793C92.2196 143.502 106.839 135.783 106.839 135.783C106.839 134.533 98.2652 130.05 89.4131 125.489" fill="#482B59"/>
<path d="M70.3044 30.6522C70.3696 33.5304 86.1413 45.4957 94.2174 32.8261C94.2174 32.8261 91.9457 56.7804 96.3913 65.4348C101.583 75.5435 95.3478 115.154 85.5218 128.478C82.2 132.98 69.9761 139.848 63.7826 117.609C57.5891 95.3696 59.4348 96.1696 59.4348 82.8261C59.4348 69.4826 75.8044 41.5217 70.3044 30.6522Z" fill="#FAFAFA"/>
<path d="M70.3044 30.6522C70.3696 33.5304 86.1413 45.4957 94.2174 32.8261C94.2174 32.8261 93.0543 55.3457 97.5 64C102.691 74.1087 95.3478 115.154 85.5218 128.478C82.2 132.98 69.9761 139.848 63.7826 117.609C57.5891 95.3696 59.4348 96.1696 59.4348 82.8261C59.4348 69.4826 75.8044 41.5217 70.3044 30.6522Z" stroke="#401C56" stroke-width="2" stroke-miterlimit="10" stroke-linecap="round" stroke-linejoin="round"/>
<path d="M98.5652 26.3044C100.661 24.2109 107.346 21.2957 108.043 19.8978C108.374 19.2348 106.624 18.1 105.946 17.8022C103.863 16.8913 98.9609 17.8022 96.8652 17.4544C89.1826 13.613 83.5957 12.9152 78.7065 15.0087C71.0239 18.5022 69.6283 27.5804 69.6283 31.0739C69.6283 34.2217 69.45 40.5413 68.9283 43.6435C68.7174 44.8978 68.0283 47.3652 67.5326 48.5348C66.1348 53.4239 62.6413 58.3131 59.8478 61.8044C57.837 64.3196 40.9913 83.4565 38.1957 89.0435C35.6891 93.9044 29.1174 105.109 31.9131 109.298C34.7609 109.707 35.4044 100.22 49.4 89.0435C52.787 85.9848 58.4 80.2783 59.4348 78.4783C59.9239 77.6261 59.4544 81.8435 59.4348 82.8261C59.1109 99.9196 61.6087 108.913 61.5935 119.076C62.6413 124.663 62.687 126.667 61.5935 128.854C58.45 135.139 52.8631 135.139 51.4652 137.587C51.4652 137.587 57.987 142.13 72.8413 133.13M105.011 87C107.235 89.4239 109.963 91.6348 111.53 93.2348C115.443 97.2261 124.8 111.393 126.896 109.3C127.598 108.6 128.683 105.063 128.296 103.709C124.104 89.0435 108.711 71.0391 100.554 56.8609M87.4065 135.578C97.75 139.563 105.902 136.615 105.902 136.615C105.333 135.809 99.4913 132.68 96.1696 131.398" stroke="#401C56" stroke-width="2" stroke-miterlimit="10" stroke-linecap="round" stroke-linejoin="round"/>
<defs>
<linearGradient id="paint0_linear_1_13" x1="81" y1="0" x2="81" y2="160" gradientUnits="userSpaceOnUse">
<stop stop-color="white"/>
<stop offset="1" stop-color="#E4E4E4"/>
</linearGradient>
</defs>
</svg>
