<svg width="646" height="107" viewBox="0 0 646 107" fill="none" xmlns="http://www.w3.org/2000/svg">
<path d="M101.724 53.5C101.724 80.1333 80.1333 101.724 53.5 101.724C26.8667 101.724 5.27608 80.1333 5.27608 53.5C5.27608 26.8667 26.8667 5.27608 53.5 5.27608C80.1333 5.27608 101.724 26.8667 101.724 53.5Z" fill="#015498" stroke="white" stroke-width="6.55216"/>
<path d="M105 53.5C105 81.9427 81.9427 105 53.5 105C25.0573 105 2 81.9427 2 53.5C2 25.0573 25.0573 2 53.5 2C81.9427 2 105 25.0573 105 53.5Z" fill="#015498"/>
<path d="M53.5 105.524C82.2322 105.524 105.524 82.2322 105.524 53.5C105.524 24.7678 82.2322 1.47583 53.5 1.47583C24.7678 1.47583 1.47583 24.7678 1.47583 53.5C1.47583 82.2322 24.7678 105.524 53.5 105.524Z" stroke="#015498" stroke-opacity="0.15" stroke-width="1.04835"/>
<path d="M101.855 53.5C101.855 80.2057 80.2057 101.855 53.5 101.855C26.7943 101.855 5.14504 80.2057 5.14504 53.5C5.14504 26.7943 26.7943 5.14504 53.5 5.14504C80.2057 5.14504 101.855 26.7943 101.855 53.5Z" stroke="white" stroke-width="6.29008"/>
<path d="M63.9583 25.2988C65.1444 24.1139 68.9278 22.464 69.3228 21.6728C69.5098 21.2975 68.5193 20.6553 68.1354 20.4867C66.9567 19.9712 64.1822 20.4867 62.9961 20.2898C58.6479 18.1158 55.4858 17.7208 52.7187 18.9057C48.3705 20.8829 47.5805 26.021 47.5805 27.9982C47.5805 29.7799 47.4797 33.3566 47.1844 35.1124C47.065 35.8223 46.675 37.2188 46.3945 37.8807C45.6033 40.6479 43.6261 43.415 42.045 45.391C40.9069 46.8146 31.3726 57.6457 29.7903 60.8078C28.3717 63.559 24.6522 69.9004 26.2345 72.2714C27.8463 72.5027 28.2105 67.1333 36.1318 60.8078C38.0487 59.0767 41.2256 55.8469 41.8112 54.8281C42.0881 54.3458 41.8223 56.7328 41.8112 57.2889C41.6279 66.9635 43.0416 72.0536 43.033 77.8057C43.6261 80.9678 43.6519 82.1022 43.033 83.34C41.2539 86.897 38.0918 86.897 37.3006 88.2825C37.3006 88.2825 40.9918 90.854 49.3991 85.7602M62.9504 57.2889C64.3087 58.6608 69.5885 62.2745 70.547 63.18C72.9364 65.439 78.6479 73.4575 79.9263 72.2726C80.3557 71.8764 81.0176 69.8746 80.7814 69.1081C79.7799 65.8586 75.4759 59.2649 71.9681 53.1991C68.4221 47.0644 64.9635 41.7561 64.9635 41.7561L60.9373 37.8807M53.14 85.7602C59.6943 91.2551 68.6411 87.2612 68.6411 87.2612C68.6411 86.5538 62.6396 83.5655 57.6295 80.9841" fill="white"/>
<path d="M49.1834 30.2822C49.2441 31.4266 49.1268 32.6739 48.9012 33.9666C48.4597 36.4963 47.5764 39.3383 46.6096 42.1849C46.2755 43.1687 45.9321 44.1511 45.5921 45.1238C44.941 46.9869 44.3022 48.8145 43.7642 50.5491C42.9438 53.1947 42.3921 55.523 42.3921 57.3071C42.3921 58.9167 42.3452 60.1694 42.3046 61.2504C42.2971 61.4515 42.2898 61.6467 42.283 61.8371C42.2399 63.0519 42.2201 64.0701 42.306 65.2381C42.4781 67.578 43.0782 70.5655 44.8341 76.8757C46.5672 83.1043 49.0508 84.9334 51.0433 85.1684C52.0748 85.2901 53.0885 85.0076 53.9715 84.5272C54.8574 84.0453 55.5685 83.3868 55.9798 82.8289C57.3126 81.0202 58.579 78.2534 59.6803 74.9875C60.7777 71.7329 61.6963 68.0275 62.3514 64.3738C63.0066 60.7191 63.3953 57.1324 63.4393 54.115C63.4838 51.06 63.1714 48.7079 62.5173 47.4331L49.1834 30.2822ZM49.1834 30.2822C50.128 31.0198 51.368 31.7546 52.7406 32.244C54.2269 32.774 55.9124 33.0312 57.5595 32.6436C58.6729 32.3816 59.739 31.8315 60.6915 30.9185C60.69 30.9624 60.6886 31.0068 60.6872 31.0519C60.6457 32.3836 60.6166 34.2122 60.6671 36.1972C60.7175 38.1802 60.8474 40.3306 61.1263 42.3027C61.4032 44.2604 61.8345 46.1027 62.5173 47.433L49.1834 30.2822Z" fill="#015498" stroke="white" stroke-width="1.34208"/>
<path d="M50.5129 32.7557C50.4585 33.2568 50.3849 33.7577 50.2983 34.2532C49.8386 36.8857 48.9272 39.8035 47.9606 42.6471C47.6184 43.6539 47.2713 44.6458 46.9302 45.6207C46.2861 47.462 45.663 49.243 45.1329 50.9508C44.3171 53.5792 43.8244 55.7309 43.8244 57.289C43.8244 58.9206 43.7765 60.1957 43.736 61.274C43.7285 61.4731 43.7213 61.6656 43.7147 61.8523C43.6721 63.0528 43.6547 64.0079 43.7348 65.0962C43.896 67.2846 44.4613 70.1512 46.2114 76.4351C47.893 82.4734 50.1131 83.5913 51.2691 83.7275C51.9529 83.8081 52.685 83.6264 53.3918 83.2422C54.1074 82.8532 54.6652 82.326 54.9558 81.9323L50.5129 32.7557ZM50.5129 32.7557C51.0902 33.0624 51.7082 33.3408 52.3545 33.571C53.996 34.1559 55.9504 34.4748 57.9204 34.0116C58.4302 33.8918 58.9283 33.7224 59.4105 33.501C59.4177 34.2968 59.436 35.1585 59.4713 36.0545C59.548 37.9969 59.7061 40.1322 60.0142 42.119C60.3164 44.0675 60.7863 46.0382 61.5646 47.5534C61.7803 47.9734 61.9965 48.7021 62.1397 49.7964C62.2794 50.8644 62.3353 52.1643 62.305 53.6479C62.2444 56.6143 61.8422 60.1796 61.1728 63.8355C60.504 67.4879 59.5776 71.1814 58.4877 74.4031C57.3858 77.6602 56.1629 80.2953 54.956 81.9319L50.5129 32.7557Z" stroke="white" stroke-width="4.02625" stroke-miterlimit="10" stroke-linecap="round" stroke-linejoin="round"/>
<path d="M63.9583 25.2988C65.1444 24.1139 68.9278 22.464 69.3228 21.6728C69.5098 21.2975 68.5193 20.6553 68.1355 20.4867C66.9567 19.9712 64.1822 20.4867 62.9961 20.2899C58.6479 18.1158 55.4858 17.7208 52.7187 18.9057C48.3705 20.8829 47.5806 26.021 47.5806 27.9982C47.5806 29.7799 47.4797 33.3566 47.1844 35.1124C47.065 35.8223 46.675 37.2188 46.3945 37.8807C45.6033 40.6479 43.6261 43.415 42.045 45.391C40.9069 46.8146 31.3726 57.6457 29.7903 60.8078C28.3717 63.559 24.6522 69.9004 26.2345 72.2714C27.8463 72.5027 28.2105 67.1333 36.1318 60.8078C38.0487 59.0767 41.2256 55.8469 41.8113 54.8281C42.0881 54.3458 41.8223 56.7328 41.8113 57.2889C41.6279 66.9635 43.0416 72.0536 43.033 77.8057C43.6261 80.9678 43.6519 82.1022 43.033 83.34C41.2539 86.897 38.0918 86.897 37.3006 88.2825C37.3006 88.2825 40.9918 90.854 49.3991 85.7602M67.6064 59.6513C68.8651 61.0232 70.4092 62.2745 71.2963 63.18C73.511 65.439 78.8066 73.4575 79.9927 72.2726C80.3901 71.8764 81.0041 69.8746 80.7851 69.1081C78.4129 60.8078 69.7005 50.6177 65.0841 42.5931M57.6427 87.1456C63.4969 89.4009 68.1108 87.7325 68.1108 87.7325C67.7885 87.276 64.4824 85.5055 62.6024 84.7795" stroke="white" stroke-width="1.13196" stroke-miterlimit="10" stroke-linecap="round" stroke-linejoin="round"/>
<path d="M148 51.8C158.16 53.32 169.68 55.08 169.68 65.72C169.68 76.84 161.68 79 147.92 79C137.76 79 130.8 77.16 127.2 73.56C124.08 70.44 124.08 66.68 124.16 64.36V63.48H136.64V63.88C136.64 67.72 139.52 69.48 147.6 69.48C152.48 69.48 157.12 68.84 157.12 65.88C157.12 62.52 152.8 61.88 147.92 61.32C147.28 61.24 146.64 61.16 146 61.08C133.12 59.4 125.12 56.52 125.12 47.56C125.12 41.32 128.72 33.88 146 33.88C164.56 33.88 168.48 42.12 168.48 49V49.4H156.08V49C156.08 45.48 153.04 43.56 146 43.56C139.2 43.56 137.76 46.04 137.76 47.4C137.76 49.4 139.12 50.52 146.96 51.72L148 51.8ZM199.526 33.32C213.206 33.32 224.566 40.6 224.566 56.2C224.566 71.96 213.206 79 199.526 79C185.926 79 174.566 71.72 174.566 56.2C174.566 40.76 185.926 33.32 199.526 33.32ZM199.526 67.96C207.206 67.96 212.646 64.28 212.646 56.2C212.646 47.88 207.206 44.44 199.526 44.44C191.926 44.44 186.486 47.72 186.486 56.2C186.486 64.6 191.926 67.96 199.526 67.96ZM266.888 34.12H279.048V79H266.888V72.44H266.328C263.448 76.44 259.368 79 251.288 79C232.327 79 231.848 63.16 231.848 56.6V34.12H243.928V56.6C243.928 60.12 243.128 68.6 254.808 68.6C265.288 68.6 266.888 61.88 266.888 55.8V34.12ZM304.008 44.52V60.44V61.4C304.008 67.88 306.888 67 318.568 66.36V78.2C318.568 78.2 316.168 79 304.008 79C291.768 79 291.768 69 291.768 62.52V44.52H285.848V34.28H291.768V21.32H304.008V34.28H318.568V44.52H304.008ZM354.578 34.12C373.618 34.12 374.818 50.04 374.818 56.6V79H362.738V56.6C362.738 53.08 362.738 44.6 351.058 44.6C340.578 44.6 338.258 51.32 338.258 57.4V79H326.098V21.24H338.258V40.76H338.818C341.698 36.76 346.578 34.12 354.578 34.12ZM383.223 34.12V23H437.703V34.12H416.503V79H404.343V34.12H383.223ZM471.971 34.12C475.171 34.12 477.811 34.84 479.891 35.32L477.971 46.76C476.851 46.44 473.731 45.8 469.891 45.8C460.851 45.8 458.211 52.84 458.211 58.92V79H446.051V34.12H458.211V40.76H458.931C461.491 36.44 464.211 34.12 471.971 34.12ZM521.003 40.76H521.562V34.12H533.723V79H521.562V72.76H521.163C518.123 76.68 513.003 79 504.523 79C485.723 79 483.643 62.6 483.643 56.6C483.643 50.04 485.643 34.12 504.603 34.12C512.923 34.12 517.963 36.76 521.003 40.76ZM508.123 68.6C518.603 68.6 520.763 63.4 520.763 56.6C520.763 50.52 518.603 44.6 508.123 44.6C496.443 44.6 495.243 53.08 495.243 56.6C495.243 59.8 496.523 68.6 508.123 68.6ZM575.893 62.2H587.893C586.933 73 577.413 79 564.533 79C551.333 79 540.613 71.4 540.613 56.52C540.613 42.04 551.333 34.04 564.533 34.04C577.413 34.04 586.853 40.28 587.893 50.92H575.973C574.933 47.56 571.973 45 564.533 45C556.613 45 552.453 48.92 552.453 56.52C552.453 64.52 556.613 68.12 564.533 68.12C572.213 68.12 575.013 65.32 575.893 62.2ZM643.724 34.12L624.684 52.92L643.564 79H628.444L615.804 61.56L607.084 70.2V78.92H595.004V21.24H607.084V53.64L626.844 34.12H643.724Z" fill="#015498"/>
</svg>
